<svg width="104" height="31" viewBox="0 0 104 31" fill="none" xmlns="http://www.w3.org/2000/svg">
<g clip-path="url(#clip0_2209_12308)">
<path fill-rule="evenodd" clip-rule="evenodd" d="M62.8064 16.0097C63.7659 16.7292 64.725 17.4488 65.6845 18.1683C64.4304 18.0947 64.0706 18.5743 64.6052 19.6074C63.9771 18.9772 63.2575 18.4975 62.4466 18.1683C58.1996 14.6337 53.2826 12.9548 47.6962 13.1316C46.202 12.8921 44.6428 12.7721 43.0192 12.7718C40.6548 12.707 38.3764 12.9468 36.1836 13.4913C32.7906 13.929 29.7926 15.2481 27.1894 17.4488C27.1823 16.8577 27.4221 16.378 27.909 16.0097C27.5492 15.8898 27.1894 15.7698 26.8297 15.6499C24.498 16.3798 22.2195 17.1593 19.9941 17.9884C18.0846 18.2871 16.1658 18.467 14.2378 18.5281C16.8569 17.9932 19.4952 17.3336 22.1527 16.5493C31.2451 12.0866 40.839 10.5276 50.9341 11.8724C55.112 12.6462 59.0695 14.0253 62.8064 16.0097Z" fill="#E9BD58"/>
<path fill-rule="evenodd" clip-rule="evenodd" d="M27.1894 17.4487C27.2512 17.8054 27.1312 18.0453 26.8297 18.1682C25.8824 18.6399 25.8824 19.1796 26.8297 19.7872C37.504 19.9038 48.1772 20.0836 58.849 20.3268C60.8878 20.2069 62.9262 20.087 64.965 19.967C64.9204 19.7488 64.8006 19.6289 64.6052 19.6073C64.0706 18.5742 64.4304 18.0946 65.6845 18.1682C66.5048 18.5784 67.3445 18.9981 68.2029 19.4274C71.4714 19.6771 74.7093 20.0969 77.9166 20.6866C78.7538 21.1754 79.5931 21.715 80.435 22.3055C67.1326 22.1419 53.8212 22.082 40.5008 22.1256C40.381 22.1256 40.2609 22.1256 40.1411 22.1256C32.4599 22.0223 24.8448 21.1828 17.2958 19.6073C16.4202 19.9031 15.5208 20.023 14.5976 19.967C13.3429 19.9527 12.1436 19.7128 10.9999 19.2475C10.88 19.2475 10.76 19.2475 10.6401 19.2475C11.3597 19.0077 12.0792 18.7678 12.7987 18.528C13.2784 18.528 13.7581 18.528 14.2378 18.528C16.1658 18.4669 18.0846 18.287 19.9941 17.9883C22.2195 17.1592 24.498 16.3797 26.8297 15.6498C27.1894 15.7698 27.5492 15.8897 27.909 16.0096C27.4221 16.3779 27.1823 16.8576 27.1894 17.4487Z" fill="#FAC44A"/>
<path fill-rule="evenodd" clip-rule="evenodd" d="M62.447 18.1683C62.6665 18.4888 62.7863 18.8486 62.8068 19.2476C61.7275 19.2476 60.6482 19.2476 59.5688 19.2476C59.5688 18.8878 59.5688 18.528 59.5688 18.1683C60.5284 18.1683 61.4875 18.1683 62.447 18.1683Z" fill="#E6BE5D"/>
<path fill-rule="evenodd" clip-rule="evenodd" d="M26.8296 18.1683C26.8296 18.2882 26.8296 18.4081 26.8296 18.528C26.6342 18.5496 26.5143 18.6695 26.4699 18.8878C28.3738 19.2457 30.2925 19.3657 32.2261 19.2476C40.4964 19.5568 48.7711 19.6767 57.0501 19.6073C58.5373 19.9617 60.0966 20.0816 61.727 19.9671C62.7649 20.0773 63.7244 19.9574 64.6052 19.6073C64.8005 19.6289 64.9203 19.7488 64.9649 19.9671C62.9261 20.087 60.8877 20.207 58.8489 20.3269C48.1771 20.0837 37.5039 19.9038 26.8296 19.7872C25.8823 19.1796 25.8823 18.64 26.8296 18.1683Z" fill="#F0C257"/>
<path fill-rule="evenodd" clip-rule="evenodd" d="M77.9169 20.6867C83.0048 20.8161 87.5616 22.3751 91.5882 25.3637C91.7781 25.8028 92.0181 26.2225 92.3077 26.6229C91.9202 26.7918 91.5605 26.7318 91.2284 26.443C88.2017 24.484 84.8439 23.4047 81.1549 23.2051C79.9867 22.9347 78.7872 22.7548 77.5572 22.6654C65.1444 22.6052 52.7921 22.4253 40.501 22.1258C53.8214 22.0821 67.1329 22.142 80.4353 22.3057C79.5935 21.7152 78.7541 21.1755 77.9169 20.6867Z" fill="#F0C055"/>
<path fill-rule="evenodd" clip-rule="evenodd" d="M17.8355 21.7659C19.5144 22.0057 21.1933 22.2456 22.8722 22.4854C36.0814 24.8996 49.393 25.6191 62.8066 24.644C66.296 24.4733 69.7739 24.4733 73.2399 24.644C71.9368 24.9409 70.6175 25.1208 69.2824 25.1837C68.6277 25.2558 68.1481 25.5556 67.8434 26.0831C66.0755 26.0334 64.3964 26.2732 62.8066 26.8026C52.7136 27.445 42.6401 27.2651 32.586 26.263C27.4386 25.5458 22.4018 24.4066 17.4757 22.8452C17.171 22.3176 16.6913 22.0179 16.0366 21.9458C16.6245 21.7682 17.2241 21.7082 17.8355 21.7659Z" fill="#F1BF50"/>
<path fill-rule="evenodd" clip-rule="evenodd" d="M78.9962 23.5647C79.6312 23.9106 80.3507 24.0305 81.1548 23.9245C81.8657 24.4681 82.705 24.7679 83.6731 24.8239C83.3321 24.9976 82.9723 25.0576 82.5938 25.0038C77.6255 24.7993 72.7089 25.159 67.8434 26.0831C68.1481 25.5556 68.6277 25.2558 69.2825 25.1837C70.6175 25.1208 71.9368 24.9409 73.2399 24.644C69.7739 24.4734 66.296 24.4734 62.8066 24.644C68.115 23.7769 73.5115 23.4172 78.9962 23.5647Z" fill="#DEB355"/>
</g>
<defs>
<clipPath id="clip0_2209_12308">
<rect width="103.253" height="30.94" fill="white" transform="translate(0.746582)"/>
</clipPath>
</defs>
</svg>
