<svg width="18" height="20" viewBox="0 0 18 20" fill="none" xmlns="http://www.w3.org/2000/svg">
<path d="M1 19.0003H17M2.666 11.1873C2.23943 11.6145 1.99989 12.1936 2 12.7973V16.0003H5.223C5.827 16.0003 6.406 15.7603 6.833 15.3323L16.333 5.82734C16.7597 5.40019 16.9994 4.82111 16.9994 4.21734C16.9994 3.61356 16.7597 3.03448 16.333 2.60734L15.395 1.66734C15.1835 1.45569 14.9323 1.28781 14.6558 1.1733C14.3794 1.0588 14.083 0.999907 13.7838 1C13.4846 1.00009 13.1883 1.05917 12.9119 1.17385C12.6355 1.28852 12.3844 1.45656 12.173 1.66834L2.666 11.1873Z" stroke="white" stroke-width="1.5" stroke-linecap="round" stroke-linejoin="round"/>
</svg>
