<svg width="17" height="16" viewBox="0 0 17 16" fill="none" xmlns="http://www.w3.org/2000/svg">
<path d="M4.84028 3.29384e-09H12.1597C12.5517 -2.56637e-05 12.9289 0.149956 13.2138 0.419178C13.4988 0.688401 13.6699 1.05645 13.6921 1.44783L13.6944 1.53472V2.83286L14.5208 2.83333C15.8903 2.83333 17 3.94306 17 5.3125V11.6875C17 12.0945 16.8383 12.4849 16.5505 12.7727C16.2627 13.0605 15.8723 13.2222 15.4653 13.2222L13.6944 13.2218V14.0486C13.6944 14.4557 13.5328 14.846 13.2449 15.1338C12.9571 15.4216 12.5668 15.5833 12.1597 15.5833H4.84028C4.43324 15.5833 4.04288 15.4216 3.75507 15.1338C3.46725 14.846 3.30556 14.4557 3.30556 14.0486V13.2218L1.53472 13.2222C1.12769 13.2222 0.737326 13.0605 0.44951 12.7727C0.161693 12.4849 0 12.0945 0 11.6875V5.3125C0 3.94306 1.10972 2.83333 2.47917 2.83333L3.30556 2.83286V1.53472C3.30553 1.14271 3.45551 0.765553 3.72473 0.480613C3.99396 0.195673 4.36201 0.0245549 4.75339 0.00236117L4.84028 3.29384e-09ZM12.1597 9.68056H4.84028C4.74635 9.68056 4.65626 9.71787 4.58984 9.78429C4.52343 9.85071 4.48611 9.9408 4.48611 10.0347V14.0486C4.48611 14.2441 4.64478 14.4028 4.84028 14.4028H12.1597C12.2537 14.4028 12.3437 14.3655 12.4102 14.2991C12.4766 14.2326 12.5139 14.1425 12.5139 14.0486V10.0347C12.5139 9.9408 12.4766 9.85071 12.4102 9.78429C12.3437 9.71787 12.2537 9.68056 12.1597 9.68056ZM14.5208 4.01389H2.47917C2.13475 4.01389 1.80445 4.15071 1.56091 4.39424C1.31737 4.63778 1.18056 4.96809 1.18056 5.3125V11.6875C1.18056 11.883 1.33922 12.0417 1.53472 12.0417L3.30556 12.0412V10.0347C3.30556 9.62769 3.46725 9.23733 3.75507 8.94951C4.04288 8.6617 4.43324 8.5 4.84028 8.5H12.1597C12.5668 8.5 12.9571 8.6617 13.2449 8.94951C13.5328 9.23733 13.6944 9.62769 13.6944 10.0347V12.0412L15.4653 12.0417C15.5592 12.0417 15.6493 12.0044 15.7157 11.9379C15.7821 11.8715 15.8194 11.7814 15.8194 11.6875V5.3125C15.8194 4.96809 15.6826 4.63778 15.4391 4.39424C15.1956 4.15071 14.8652 4.01389 14.5208 4.01389ZM12.1597 1.18056H4.84028C4.75469 1.18056 4.67201 1.21155 4.6075 1.26781C4.543 1.32406 4.50106 1.40177 4.48942 1.48656L4.48611 1.53472V2.83286H12.5139V1.53472C12.5139 1.44914 12.4829 1.36645 12.4266 1.30195C12.3704 1.23745 12.2927 1.1955 12.2079 1.18386L12.1597 1.18056Z" fill="white"/>
</svg>
